<?xml version="1.0" encoding="UTF-8" standalone="no"?>
<!-- Created with Inkscape (http://www.inkscape.org/) -->

<svg
   xmlns:dc="http://purl.org/dc/elements/1.1/"
   xmlns:cc="http://creativecommons.org/ns#"
   xmlns:rdf="http://www.w3.org/1999/02/22-rdf-syntax-ns#"
   xmlns:svg="http://www.w3.org/2000/svg"
   xmlns="http://www.w3.org/2000/svg"
   xmlns:sodipodi="http://sodipodi.sourceforge.net/DTD/sodipodi-0.dtd"
   xmlns:inkscape="http://www.inkscape.org/namespaces/inkscape"
   width="9.0898924mm"
   height="8.9109917mm"
   viewBox="0 0 9.0898922 8.9109918"
   version="1.1"
   id="svg111794"
   inkscape:version="0.92.3 (2405546, 2018-03-11)"
   sodipodi:docname="SelectorFour_03.svg">
  <defs
     id="defs111788" />
  <sodipodi:namedview
     id="base"
     pagecolor="#ffffff"
     bordercolor="#666666"
     borderopacity="1.0"
     inkscape:pageopacity="0.0"
     inkscape:pageshadow="2"
     inkscape:zoom="9.7905407"
     inkscape:cx="35.6689"
     inkscape:cy="-0.48196152"
     inkscape:document-units="mm"
     inkscape:current-layer="g821"
     showgrid="false"
     fit-margin-top="0"
     fit-margin-left="0"
     fit-margin-right="0"
     fit-margin-bottom="0"
     inkscape:window-width="2560"
     inkscape:window-height="1422"
     inkscape:window-x="0"
     inkscape:window-y="18"
     inkscape:window-maximized="0"
     inkscape:snap-grids="false"
     inkscape:snap-bbox="true"
     inkscape:snap-bbox-midpoints="true"
     showguides="true"
     inkscape:guide-bbox="true"
     inkscape:bbox-nodes="false"
     inkscape:snap-page="false"
     inkscape:snap-to-guides="false">
    <sodipodi:guide
       position="6.3499912,2.5609913"
       orientation="1,0"
       id="guide9"
       inkscape:locked="false" />
    <sodipodi:guide
       position="6.3499912,2.5609913"
       orientation="0,1"
       id="guide11"
       inkscape:locked="false" />
  </sodipodi:namedview>
  <metadata
     id="metadata111791">
    <rdf:RDF>
      <cc:Work
         rdf:about="">
        <dc:format>image/svg+xml</dc:format>
        <dc:type
           rdf:resource="http://purl.org/dc/dcmitype/StillImage" />
        <dc:title />
      </cc:Work>
    </rdf:RDF>
  </metadata>
  <g
     inkscape:label="Layer 1"
     inkscape:groupmode="layer"
     id="layer1"
     transform="translate(-127.95617,-62.862058)">
    <g
       id="g821"
       style="fill:#2affd5;fill-opacity:1">
      <g
         aria-label="3"
         style="font-style:normal;font-variant:normal;font-weight:normal;font-stretch:normal;font-size:2.82222223px;line-height:1.25;font-family:Xpressive;-inkscape-font-specification:Xpressive;font-variant-ligatures:discretionary-ligatures historical-ligatures;font-variant-caps:normal;font-variant-numeric:normal;font-feature-settings:normal;text-align:start;letter-spacing:0px;word-spacing:0px;writing-mode:lr-tb;text-anchor:start;fill:#ffffff;fill-opacity:1;stroke:#000000;stroke-width:0.005;stroke-miterlimit:4;stroke-dasharray:none;stroke-opacity:1"
         id="text14">
        <path
           d="m 135.36516,65.31164 q 0,-0.1524 -0.0734,-0.276578 -0.0734,-0.124177 -0.2032,-0.186266 0.23707,-0.1016 0.23707,-0.395111 0,-0.200378 -0.14111,-0.358423 -0.15523,-0.172155 -0.38383,-0.172155 -0.19191,0 -0.36688,0.09031 l 0.0762,0.220133 q 0.079,-0.0508 0.14675,-0.06773 0.0706,-0.01693 0.13829,-0.01693 0.11853,0 0.20602,0.09031 0.0875,0.09031 0.0875,0.2032 0,0.143933 -0.127,0.234244 -0.11289,0.08184 -0.26247,0.08184 -0.0169,0 -0.0339,0 -0.0226,-0.0056 -0.0339,-0.0056 v 0.214489 q 0.18627,0 0.32738,0.07902 0.17498,0.09878 0.17498,0.270934 0,0.132644 -0.10725,0.251177 -0.10442,0.115712 -0.23706,0.115712 -0.0819,0 -0.20885,-0.06491 -0.0931,-0.04798 -0.13547,-0.06209 l -0.127,0.183444 q 0.1016,0.0762 0.23425,0.121356 0.13547,0.04233 0.254,0.04233 0.24271,0 0.4064,-0.189089 0.1524,-0.1778 0.1524,-0.403578 z"
           style="font-style:normal;font-variant:normal;font-weight:normal;font-stretch:normal;font-size:2.82222223px;font-family:Xpressive;-inkscape-font-specification:Xpressive;fill:#ffffff;stroke-width:0.005;stroke-miterlimit:4;stroke-dasharray:none;stroke:#000000;stroke-opacity:1"
           id="path1524" />
      </g>
      <path
         inkscape:connector-curvature="0"
         style="fill:#2abed5;fill-opacity:1;fill-rule:nonzero;stroke:#000000;stroke-width:0.35299999;stroke-miterlimit:4;stroke-dasharray:none"
         d="m 136.44562,65.323827 a 1.3832449,3.7921613 45 0 1 -3.50402,1.55328 1.3832449,3.7921613 45 0 1 1.55225,-3.50454 c -1.65858,-0.83801 -3.73297,-0.56855 -5.11863,0.8171 -1.7263,1.72631 -1.72698,4.52682 0,6.25381 1.727,1.72699 4.5275,1.72631 6.25381,0 1.38586,-1.38586 1.6551,-3.46091 0.81659,-5.11965 z"
         id="path110590-9"
         inkscape:transform-center-x="-0.026614193"
         inkscape:transform-center-y="-0.10768934" />
      <circle
         style="fill:#000000;stroke:none;stroke-width:0.89999998;stroke-linecap:square;stroke-linejoin:round;stroke-miterlimit:4;stroke-dasharray:none"
         id="path819"
         cx="132.50111"
         cy="67.307579"
         r="0.24321947" />
    </g>
  </g>
</svg>
