<?xml version="1.0" encoding="UTF-8" standalone="no"?>
<!-- Created with Inkscape (http://www.inkscape.org/) -->

<svg
   xmlns:dc="http://purl.org/dc/elements/1.1/"
   xmlns:cc="http://creativecommons.org/ns#"
   xmlns:rdf="http://www.w3.org/1999/02/22-rdf-syntax-ns#"
   xmlns:svg="http://www.w3.org/2000/svg"
   xmlns="http://www.w3.org/2000/svg"
   xmlns:sodipodi="http://sodipodi.sourceforge.net/DTD/sodipodi-0.dtd"
   xmlns:inkscape="http://www.inkscape.org/namespaces/inkscape"
   width="9.0898924mm"
   height="8.9109917mm"
   viewBox="0 0 9.0898922 8.9109918"
   version="1.1"
   id="svg111794"
   inkscape:version="0.92.3 (2405546, 2018-03-11)"
   sodipodi:docname="SelectorFour_02.svg">
  <defs
     id="defs111788" />
  <sodipodi:namedview
     id="base"
     pagecolor="#ffffff"
     bordercolor="#666666"
     borderopacity="1.0"
     inkscape:pageopacity="0.0"
     inkscape:pageshadow="2"
     inkscape:zoom="9.7905407"
     inkscape:cx="14.967891"
     inkscape:cy="-0.48196152"
     inkscape:document-units="mm"
     inkscape:current-layer="g821"
     showgrid="false"
     fit-margin-top="0"
     fit-margin-left="0"
     fit-margin-right="0"
     fit-margin-bottom="0"
     inkscape:window-width="2560"
     inkscape:window-height="1422"
     inkscape:window-x="0"
     inkscape:window-y="18"
     inkscape:window-maximized="0"
     inkscape:snap-grids="false"
     inkscape:snap-bbox="true"
     inkscape:snap-bbox-midpoints="true"
     showguides="true"
     inkscape:guide-bbox="true"
     inkscape:bbox-nodes="false"
     inkscape:snap-page="false"
     inkscape:snap-to-guides="false">
    <sodipodi:guide
       position="6.3499912,2.5609913"
       orientation="1,0"
       id="guide9"
       inkscape:locked="false" />
    <sodipodi:guide
       position="6.3499912,2.5609913"
       orientation="0,1"
       id="guide11"
       inkscape:locked="false" />
  </sodipodi:namedview>
  <metadata
     id="metadata111791">
    <rdf:RDF>
      <cc:Work
         rdf:about="">
        <dc:format>image/svg+xml</dc:format>
        <dc:type
           rdf:resource="http://purl.org/dc/dcmitype/StillImage" />
        <dc:title />
      </cc:Work>
    </rdf:RDF>
  </metadata>
  <g
     inkscape:label="Layer 1"
     inkscape:groupmode="layer"
     id="layer1"
     transform="translate(-127.95617,-62.862058)">
    <g
       id="g821"
       style="fill:#2affd5;fill-opacity:1">
      <g
         aria-label="2"
         style="font-style:normal;font-variant:normal;font-weight:normal;font-stretch:normal;font-size:2.82222223px;line-height:1.25;font-family:Xpressive;-inkscape-font-specification:Xpressive;font-variant-ligatures:discretionary-ligatures historical-ligatures;font-variant-caps:normal;font-variant-numeric:normal;font-feature-settings:normal;text-align:start;letter-spacing:0px;word-spacing:0px;writing-mode:lr-tb;text-anchor:start;fill:#ffffff;fill-opacity:1;stroke:#000000;stroke-width:0.005;stroke-opacity:1;stroke-miterlimit:4;stroke-dasharray:none"
         id="text14">
        <path
           d="m 130.58099,64.281447 q 0,-0.2032 -0.17216,-0.381 -0.16933,-0.1778 -0.38664,-0.1778 -0.22296,0 -0.40076,0.172156 -0.17498,0.169333 -0.17498,0.381 0,0.08467 0.0169,0.158044 0.0197,0.07338 0.0621,0.143934 l 0.20603,-0.09878 q -0.0226,-0.03387 -0.0339,-0.08467 -0.0113,-0.05362 -0.0113,-0.09878 0,-0.138289 0.0988,-0.231422 0.0988,-0.09313 0.23142,-0.09313 0.127,0 0.2286,0.1016 0.10442,0.09878 0.10442,0.220133 0,0.1778 -0.2032,0.276578 -0.2032,0.09878 -0.40075,0.189089 -0.2286,0.138289 -0.26529,0.389466 l -0.079,0.544689 h 1.11195 v -0.2286 h -0.84102 l 0.0339,-0.265289 q 0.0198,-0.158044 0.24835,-0.282222 0.2032,-0.110066 0.40922,-0.220133 0.21732,-0.160867 0.21732,-0.414867 z"
           style="font-style:normal;font-variant:normal;font-weight:normal;font-stretch:normal;font-size:2.82222223px;font-family:Xpressive;-inkscape-font-specification:Xpressive;fill:#ffffff;stroke-width:0.005;stroke:#000000;stroke-opacity:1;stroke-miterlimit:4;stroke-dasharray:none"
           id="path1518" />
      </g>
      <path
         inkscape:connector-curvature="0"
         style="fill:#2abed5;fill-opacity:1;fill-rule:nonzero;stroke:#000000;stroke-width:0.35299999;stroke-miterlimit:4;stroke-dasharray:none"
         d="m 130.50739,63.373046 a 3.7921613,1.3832449 45 0 1 1.55328,3.50402 3.7921613,1.3832449 45 0 1 -3.50454,-1.55225 c -0.83801,1.65858 -0.56855,3.73297 0.8171,5.11863 1.72631,1.7263 4.52682,1.72698 6.25381,0 1.72699,-1.727 1.72631,-4.5275 0,-6.25381 -1.38586,-1.38586 -3.46091,-1.6551 -5.11965,-0.81659 z"
         id="path110590-9"
         inkscape:transform-center-x="0.10768972"
         inkscape:transform-center-y="-0.026617461" />
      <circle
         style="fill:#000000;stroke:none;stroke-width:0.89999998;stroke-linecap:square;stroke-linejoin:round;stroke-miterlimit:4;stroke-dasharray:none"
         id="path819"
         cx="132.50111"
         cy="67.307579"
         r="0.24321947" />
    </g>
  </g>
</svg>
